<?xml version="1.0" encoding="utf-8"?>
<!-- Generator: Adobe Illustrator 24.0.1, SVG Export Plug-In . SVG Version: 6.00 Build 0)  -->
<svg version="1.1" id="Layer_1" xmlns="http://www.w3.org/2000/svg" xmlns:xlink="http://www.w3.org/1999/xlink" x="0px" y="0px"
	 viewBox="0 0 959.2 526.3" style="enable-background:new 0 0 959.2 526.3;" xml:space="preserve">
<style type="text/css">
	.st0{fill:#231F20;}
	.st1{fill:url(#SVGID_1_);stroke:url(#SVGID_2_);stroke-width:0.65;stroke-miterlimit:10;}
	.st2{fill:url(#SVGID_3_);}
	.st3{fill:url(#SVGID_4_);}
	.st4{fill:url(#SVGID_5_);}
	.st5{fill:url(#SVGID_6_);}
	.st6{fill:url(#SVGID_7_);}
	.st7{fill:url(#SVGID_8_);}
	.st8{fill:url(#SVGID_9_);}
	.st9{fill:url(#SVGID_10_);}
	.st10{fill:url(#SVGID_11_);}
	.st11{fill:url(#SVGID_12_);}
	.st12{fill:url(#SVGID_13_);}
	.st13{fill:url(#SVGID_14_);}
	.st14{fill:url(#SVGID_15_);}
	.st15{fill:url(#SVGID_16_);}
	.st16{fill:url(#SVGID_17_);}
	.st17{fill:url(#SVGID_18_);}
	.st18{fill:url(#SVGID_19_);}
	.st19{fill:url(#SVGID_20_);}
	.st20{fill:url(#SVGID_21_);}
	.st21{fill:url(#SVGID_22_);}
	.st22{fill:url(#SVGID_23_);}
	.st23{fill:url(#SVGID_24_);}
	.st24{fill:url(#SVGID_25_);}
	.st25{fill:url(#SVGID_26_);}
	.st26{fill:url(#SVGID_27_);}
	.st27{fill:url(#SVGID_28_);}
	.st28{fill:url(#SVGID_29_);}
	.st29{fill:url(#SVGID_30_);}
	.st30{fill:url(#SVGID_31_);}
	.st31{fill:url(#SVGID_32_);}
	.st32{fill:url(#SVGID_33_);}
	.st33{fill:url(#SVGID_34_);}
	.st34{fill:url(#SVGID_35_);}
	.st35{fill:url(#SVGID_36_);}
	.st36{fill:url(#SVGID_37_);}
	.st37{fill:url(#SVGID_38_);}
	.st38{fill:url(#SVGID_39_);}
	.st39{fill:url(#SVGID_40_);}
	.st40{fill:url(#SVGID_41_);}
	.st41{fill:url(#SVGID_42_);}
	.st42{fill:url(#SVGID_43_);}
	.st43{fill:url(#SVGID_44_);}
	.st44{fill:url(#SVGID_45_);}
	.st45{fill:url(#SVGID_46_);}
	.st46{fill:url(#SVGID_47_);}
	.st47{fill:url(#SVGID_48_);}
	.st48{fill:url(#SVGID_49_);}
	.st49{fill:url(#SVGID_50_);}
	.st50{fill:url(#SVGID_51_);}
	.st51{fill:url(#SVGID_52_);}
	.st52{fill:url(#SVGID_53_);}
	.st53{fill:url(#SVGID_54_);}
</style>
<title>selfcare</title>
<g>
	<g>
		<path class="st0" d="M197.1,152c0.2,7-1.4,14-4.5,20.4c-3,5.8-6.4,10-10.2,12.8c-4.2,2.9-8.7,5.1-13.6,6.5c-6,2-12.4,3.1-18.7,3.2
			c-11.8,0-21.5-2.3-29.3-6.9c-7.8-4.6-11.7-12-11.7-22.1c0-6,1.6-10.9,4.9-14.7c5.1-5.6,11.1-8.4,18.2-8.4c2.2,0,3.3,1,3.2,3
			c0,0.2-0.4,1.6-1.2,4.2c-0.9,3.2-1.3,6.6-1.2,9.9c0,4,1.8,7.9,4.8,10.6c3,3,7.2,4.7,11.5,4.6c4.5,0,8.1-0.8,10.9-2.3
			c2.5-1.3,4.5-3.3,5.7-5.8c1.5-2.8,2.4-6,2.4-9.2c0-5.2-2.6-9.8-7.9-13.6c-5.3-3.8-11.2-6.9-17.4-9c-6.5-2.3-12.5-6-17.4-10.9
			c-5.2-4.9-8.1-11.8-7.9-19c0-13,4.1-22.8,12.4-29.3s19.4-9.8,33.5-9.8c6.5,0.1,13.1,0.9,19.4,2.6c6.8,1.7,10.2,4.6,10.2,8.7
			c0.1,3.8-0.6,7.7-2,11.3c-1.3,3.4-3,5.1-5,5.1c-0.9,0.1-1.8-0.4-2.2-1.2c-0.5-1-1.1-2-1.9-2.9c-0.9-1.1-3.1-2.5-6.5-4.2
			c-2.7-1.5-5.8-2.4-8.9-2.5c-2.4,0-4.1,0-4.9,0.1s-2.2,0.4-4.2,0.8c-1.9,0.4-3.7,1.1-5.4,2c-4.2,2.4-6.2,5.8-6.2,10.3
			c0,2.9,0.6,5,1.9,6.4c1.3,1.4,2.3,2.4,3,3.1c1.1,1,2.4,1.9,3.8,2.6c1.8,1,3.1,1.7,3.8,2s2.4,1.1,4.9,2.3s4.2,2,4.9,2.3
			C187.5,124.1,197.1,136.4,197.1,152z"/>
		<path class="st0" d="M292.8,156.3c0.1,6.3-1.3,12.5-4.2,18c-2.8,5.1-6,8.9-9.5,11.4c-3.8,2.6-7.9,4.5-12.3,5.8
			c-5.5,1.7-11.3,2.6-17.1,2.7c-15.2,0-26.4-5.7-33.6-17.1c-7.2-11.4-10.9-25.9-10.9-43.5c0-17.6,4.5-33.3,13.4-47.1
			c9-13.8,22.4-20.6,40.3-20.6c16.3,0,27.3,5.7,33.1,17.1c2.2,3.8,3.4,8,3.5,12.3c0.1,3.1-0.1,6.2-0.5,9.2
			c-0.4,2.3-1.6,5.7-3.8,10.2c-2.2,4.5-5.1,8.7-8.7,12.2c-3.6,3.6-9.3,7.1-17.1,10.3c-8.8,3.5-18,5.7-27.4,6.5
			c-1.5,0-2.2,0.6-2.2,1.9c0.2,2.5,0.8,4.9,1.8,7.2c1,2.8,2.3,5.5,3.9,8c4,5.1,9.9,7.6,17.6,7.6c7.3,0.2,14.5-2.6,19.8-7.6
			c3-2.8,5.4-6.2,7.1-10c0.7-1.4,1.7-2.2,2.8-2.2s2.1,1,2.9,3C292.4,153.2,292.7,154.7,292.8,156.3z M233.6,120.2l0.3,6.8
			c0,1.1,0.7,1.6,2.2,1.6c5.3-0.4,10.5-1.9,15.2-4.5c3.8-2,7.2-4.8,9.8-8.3c4.3-6.7,6.7-12.5,7-17.4l0.3-3.3
			c0-9.8-3.9-14.7-11.7-14.6c-5.8,0-10.5,2.5-14.1,7.6C236.6,96.2,233.7,106.8,233.6,120.2L233.6,120.2z"/>
		<path class="st0" d="M341.7,33.9l-1.6,99.6c0,31.1,1,49.8,3,55.9c0.5,1,0.8,2.1,0.8,3.2c0,2.2-2.6,3.3-7.9,3.3s-11.1-1.3-17.5-3.9
			s-9.6-6-9.6-10.2c3.6-25.3,5.4-59.2,5.4-101.5l-1.1-41.5c-0.2-4.5-1.3-8.9-3.1-13c-1.7-3.6-3.4-6-5-7.1l-2.2-1.4
			c-1.3-0.7-1.9-1.5-1.9-2.4c0-2.5,3.9-5.7,11.8-9.4c7.1-3.5,15-5.4,22.9-5.6c2.9,0,4.5,1,4.9,3C341.3,7.7,341.7,18,341.7,33.9z"/>
		<path class="st0" d="M395.4,121.3l1.4,54.3c0,11.4-1.5,21.5-4.5,30.3c-3,8.8-6.6,15.3-11,19.7c-8.9,9.2-16.7,14.5-23.3,15.7
			l-4.6,1.1c-2.7,0-4.1-0.8-4.1-2.5l1.4-4.1c13.2-18.3,19.8-63.1,19.8-134.6c0-6.5-0.1-11.4-0.3-14.7c-3.8,0-7.6,0.3-11.4,0.8h-0.3
			c-2,0-3-1-3-3l0.8-10.3c0.2-1.6,1.4-2.4,3.8-2.4h9.8V53.5l0.5-25.8c0-1.4,0.3-2.8,0.7-4.2c0.5-1.5,2.4-3.9,5.8-7.1
			c3.4-3.2,8.5-6.1,15.2-8.7c6.7-2.6,12.4-3.9,17.2-3.9s7.2,1.4,7.2,4.4c0,1.1-0.8,2-2.5,2.7c-5.2,1.6-9.5,6.3-12.9,14
			s-5,20.8-5,39.2v7.6c9.2-0.4,15.3-0.8,18.2-1.4c1.3,0,1.9,1.1,1.9,3.3s-1,4.8-2.9,8s-4.2,4.8-7,4.9s-6.3,0-10.5-0.1
			C395.6,100.1,395.4,111.7,395.4,121.3z"/>
		<path class="st0" d="M558,157.9c0,10.3-4.1,18.9-12.3,25.6c-8.2,6.8-18,10.2-29.4,10.2c-16.7,0-28.9-5-36.6-15.1
			s-11.6-23.7-11.7-40.8c0-18.3,4.1-34.5,12.2-48.6c4-7.2,9.9-13.1,17.1-17.1c7.4-4.2,16.1-6.2,26-6.2c15,0,25.6,5.1,31.8,15.2
			c2.6,4.4,3.9,9.5,3.8,14.6c0,8.7-3.6,15.2-10.8,19.5c-2.4,1.5-5.2,2.3-8,2.4c-2,0-4-0.1-6-0.4c-1.5-0.3-3.6-1.5-6.1-3.7
			c-2.6-2.2-4-5.5-3.8-9c0.2-2,1.7-3.6,4.6-4.9c2.7-1.6,4.1-4.5,4.1-8.7c0-7.1-4.3-10.6-13-10.6c-2.2,0-4.8,0.9-7.7,2.8
			c-3,1.9-5.5,4.4-7.5,7.3c-2,3-3.9,7.7-5.6,14.1c-1.7,6-2.5,12.2-2.6,18.5c-0.1,4.4,0.1,8.9,0.7,13.3c0.7,4.1,1.7,8.2,3,12.2
			c1.5,5,4.5,9.5,8.7,12.6c4.3,3.3,9.5,4.9,15.9,4.9c7.6,0,14.3-3.2,20.1-9.5c2.5-2.7,4.4-5.8,5.7-9.2c0.7-1.5,1.6-2.2,2.7-2.2
			c1.6,0,2.8,1.5,3.7,4.5C557.5,152.5,557.9,155.2,558,157.9z"/>
		<path class="st0" d="M663,107.7l-0.5,34.7c0,24.1,2.6,38.5,7.9,43.4c0.7,0.6,1.1,1.5,1.1,2.4c0,2.7-5.8,4.1-17.5,4.1
			c-11.7,0-17.9-3.5-18.6-10.3c-0.2-1.6-0.3-5-0.3-10l1.1-43.4c0-1.3-0.7-1.9-2.2-1.9c-8.7,0-17.2,2.5-24.4,7.3
			c-7.6,4.9-11.4,11.1-11.4,18.7c-0.1,3.6,1,7.1,3.2,10c1.9,2.6,4.8,4.1,8,4.1c2.7,0.1,5.5-0.6,7.9-1.9c2.1-1.3,3.3-2,3.7-2.2
			c3.1,0.4,4.6,3.6,4.6,9.6s-2.8,10.9-8.4,14.6c-5.2,3.6-11.3,5.5-17.6,5.6c-5.5,0.1-10.9-1-15.9-3.2c-4.4-2.2-7.7-4.6-9.6-7.3
			c-2.1-2.8-3.7-5.9-4.9-9.2c-1.2-3.5-1.8-7.2-1.9-10.9c0-12.7,4-22.8,11.9-30.4c8-7.6,18.2-13,30.7-16.2c16.5-3.3,25.1-6.2,25.8-9
			c0.7-3.3,0.9-6.6,0.8-10c0-9.6-4.9-14.4-14.7-14.4c-4.1,0-8,1.4-11.1,3.9c-3.1,2.3-4.9,6-4.9,9.9l1.6,6.5
			c-0.4,3.1-3.6,4.9-9.8,5.4l-3,0.3c-5.4,0-9.7-1.4-12.9-4.1c-3.2-2.7-4.9-6.7-4.7-10.9c0.1-3.4,1.1-6.7,2.8-9.6
			c1.7-3.3,4.2-6.3,7.2-8.5c2.9-2.2,7.4-4.1,13.4-5.8c5.7-1.7,11.6-2.5,17.5-2.6c4.3-0.1,8.7,0.1,13,0.6c4.3,0.6,8.5,1.5,12.6,2.6
			c5.1,1.2,9.7,3.9,13.3,7.7c3.5,3.8,5.4,7.8,5.7,12.1C662.8,93.6,663,99.8,663,107.7z"/>
		<path class="st0" d="M762.3,116.4l1.1,9.5c0,3.4-3.3,5.2-9.8,5.2c-13.2,0-19.8-5-19.8-14.9c0.2-3.3,0.8-6.6,1.9-9.8
			c1.2-3.5,1.8-7.2,1.9-10.9c0.1-2.9-0.9-5.7-2.7-8c-1.8-2.3-4.4-3.4-7.9-3.4c-3.3-0.1-6.5,1.3-8.8,3.7c-2.2,2-3.7,4.6-4.5,7.5
			l-1.1,3.8c-1.1,5.6-1.6,15-1.6,28.1c0,13.1,0.2,23.4,0.5,30.9c0.4,7.5,0.7,12.7,1.1,15.5c0.4,2.8,0.5,4.5,0.5,5
			c0,4.5-2.8,8.2-8.4,11c-5.2,2.7-11,4.1-16.8,4.2c-5.6,0-8.4-1.2-8.4-3.5l1.3-8.4c2.5-15.7,3.8-36.3,3.8-61.6
			c0-25.3-0.9-42.5-2.7-51.6c0-2.2,1.9-3.3,5.7-3.2c9.8,0,16.3,3.3,19.5,10c0.2,0.7,0.5,1.1,1,1.1s1.6-0.8,3.6-2.4
			c6-4.9,13.5-7.5,21.2-7.3c5.2,0,10.4,1.1,15.2,3c10.3,4.2,15.5,12.8,15.5,26L762.3,116.4z"/>
		<path class="st0" d="M860.8,156.3c0.1,6.3-1.3,12.5-4.2,18c-2.8,5.1-6,8.9-9.5,11.4c-3.8,2.6-7.9,4.5-12.3,5.8
			c-5.5,1.7-11.3,2.6-17.1,2.7c-15.2,0-26.4-5.7-33.7-17.1c-7.2-11.4-10.9-25.9-10.9-43.5c0-17.6,4.5-33.3,13.4-47.1
			c9-13.8,22.4-20.6,40.3-20.6c16.3,0,27.3,5.7,33.1,17.1c2.2,3.8,3.4,8,3.5,12.3c0.1,3.1-0.1,6.2-0.5,9.2
			c-0.4,2.3-1.6,5.7-3.8,10.2c-2.2,4.5-5.1,8.7-8.7,12.2c-3.6,3.6-9.3,7.1-17.1,10.3c-8.8,3.5-18,5.7-27.4,6.5
			c-1.5,0-2.2,0.6-2.2,1.9c0.2,2.5,0.8,4.9,1.8,7.2c1,2.8,2.3,5.5,3.9,8c4,5.1,9.9,7.6,17.6,7.6c7.3,0.2,14.5-2.6,19.8-7.6
			c3-2.8,5.4-6.2,7-10c0.7-1.4,1.7-2.2,2.8-2.2s2.1,1,2.8,3C860.4,153.2,860.7,154.7,860.8,156.3z M801.7,120.2l0.3,6.8
			c0,1.1,0.7,1.6,2.2,1.6c5.3-0.4,10.5-1.9,15.2-4.5c3.8-2,7.2-4.8,9.8-8.3c4.3-6.7,6.7-12.5,7-17.4l0.3-3.3
			c0-9.8-3.9-14.7-11.7-14.6c-5.8,0-10.5,2.5-14.1,7.6C804.6,96.2,801.7,106.8,801.7,120.2L801.7,120.2z"/>
	</g>
	<g>
		<path class="st0" d="M67.6,305.1c-7.5,1.5-15.3-2-20.8-7.4s-9-12.4-12-19.4C19,242.1,11.7,202.8,13.3,163.4
			c35.6-0.8,67.8,22.5,89.7,50.6c24,30.8,38.8,67.7,53.2,104c12.5-31.2,22.2-63.4,28.9-96.3c2.3-11.4,5-24,14.5-30.7
			c-2.2,45.8-27.6,87.7-32.1,133.2c48.8-43.6,111.5-68.5,177-70.2c4.4-0.1,9,0,13.1,1.7s7.5,5.7,7.3,10.1c-0.1,2.8-1.6,5.3-3.1,7.6
			c-18.1,29.1-40.9,55-67.6,76.5c-6.1,4.9-12.5,9.6-20,11.7s-16.4,0.9-21.8-4.7l20.7,20.3l-11.5,3.7c8.7-2.8,13,17.2,11.4,22.1
			c-2.3,7-14.2,9.3-14.2,16.4c0,2.6,2,4.8,2.7,7.4c1.4,5.1-2.8,10.2-7.5,12.8s-10.1,3.6-14.5,6.7c-9.8,6.8-11,21-8.3,32.5
			s8.5,22.5,9.3,34.4c0.4,5.5-1.6,12.5-7.1,13c-3.7,0.3-6.9-3-8-6.5s-0.6-7.4-0.3-11.1c0.6-8.5-0.3-17.5-4.8-24.7
			s-13.4-12.2-21.7-10.1c-4.6,1.2-8.5,4.3-13,5.5s-10.7-0.6-11.4-5.3c-0.4-3.2,1.9-6,3.5-8.8s2.2-7.1-0.6-8.7
			c-2.5-1.4-5.5,0.4-8.4,0.4c-4.5,0-7.8-4.5-8.3-8.9s1-8.8,2.2-13.1c5.2-19.5,3.2-40.3-5.6-58.4c-1.6-3.3-3.7-6.7-7.1-8.2
			c-5.9-2.7-12.6,1.5-17.2,5.9c-14.3,13.6-23.9,31.3-27.4,50.7c-0.6,3.6-1.1,7.3-3.3,10.2s-6.6,4.5-9.4,2.3c-2.2-1.7-2.8-5-5.2-6.3
			c-3.9-2-7.8,2.7-8.9,6.9s-2,9.4-6.1,10.8c-6,2.1-9.9-6-14.4-10.6c-6.6-6.9-18.4-6.4-26.3-1s-12.4,14.5-15.2,23.6
			c-1.5,5-4.1,11.3-9.4,11.2c-5.4-0.1-7.7-7.2-6.8-12.6c2.4-14.6,15.6-24.5,27-34c3.5-2.9,7.1-6.1,9-10.3c4.5-10-1.8-21.2-5.5-31.6
			c-5.5-15.9-4.6-33.2,2.3-48.5c3.5-7.6,8.7-15.1,8.3-23.5L67.6,305.1z"/>
		
			<radialGradient id="SVGID_1_" cx="305.4387" cy="44.7368" r="13.9397" gradientTransform="matrix(0.9665 0.2568 0.2568 -0.9665 -35.7663 310.7837)" gradientUnits="userSpaceOnUse">
			<stop  offset="0" style="stop-color:#FFFFFF"/>
			<stop  offset="0" style="stop-color:#FEF6F9"/>
			<stop  offset="0.97" style="stop-color:#EC008C"/>
		</radialGradient>
		
			<radialGradient id="SVGID_2_" cx="272.3" cy="34.42" r="14.26" gradientTransform="matrix(1 0 0 -1 -21.19 371.06)" gradientUnits="userSpaceOnUse">
			<stop  offset="0" style="stop-color:#FFFFFF"/>
			<stop  offset="0" style="stop-color:#FEF6F9"/>
			<stop  offset="0.97" style="stop-color:#EC008C"/>
		</radialGradient>
		<path class="st1" d="M272,334.3c4-2.1,9.8-1.8,12.4,2c2.1,3,1.5,7.3-0.6,10.3s-5.4,5-8.7,6.5c-4.2,1.9-22.7,8.7-19.9,0.6
			c1-2.8,5.8-6.8,7.6-9.4C265.4,340.5,267.8,336.5,272,334.3z"/>
		
			<radialGradient id="SVGID_3_" cx="273.65" cy="35.08" r="12.72" gradientTransform="matrix(1 0 0 -1 -21.19 371.06)" gradientUnits="userSpaceOnUse">
			<stop  offset="0" style="stop-color:#FFFFFF"/>
			<stop  offset="0" style="stop-color:#FEF6F9"/>
			<stop  offset="0.97" style="stop-color:#EC008C"/>
		</radialGradient>
		<path class="st2" d="M266.4,337.9c3.1-3.2,7.5-5.7,11.9-4.6c4,1,6.8,5.2,6.8,9.4c0,3.2-1.2,6.2-3.3,8.5c-2.9,3.3-7.2,5-11.6,5.5
			s-10,1.5-11.4-3.4C257.5,348.8,263.5,340.9,266.4,337.9z"/>
		<g>
			
				<radialGradient id="SVGID_4_" cx="55.9148" cy="140.6118" r="13.4315" gradientTransform="matrix(0.9665 0.2568 0.2568 -0.9665 -35.7663 310.7837)" gradientUnits="userSpaceOnUse">
				<stop  offset="0" style="stop-color:#FFFFFF"/>
				<stop  offset="1" style="stop-color:#EC008C"/>
			</radialGradient>
			<path class="st3" d="M53.8,193.8c-4.3,0-9-0.1-12.5-2.6s-4.9-8.4-1.5-11.1c3-2.4,7.4-0.9,11,0.6l11.7,5.2
				c2.3,0.9,4.4,2.2,6.3,3.9c1.7,1.8,2.7,4.5,1.7,6.8c-1.2,2.8-5,3.8-8,2.8s-5.2-3.2-7.4-5.4"/>
			<path class="st0" d="M53,193.3c-4.7,0-10.1-0.3-12.5-4.9c-1.8-3.5-1-9.4,4-9.2c2.5,0.1,5.1,1.6,7.3,2.6l8.1,3.6
				c2.5,1.1,5.2,2.1,7.1,4.1c1.6,1.6,2.7,4.2,1.9,6.5c-0.8,2.2-3,3.5-5.3,3.2c-2.8-0.6-5.1-3.3-7-5.2c-0.6-0.4-1.3-0.6-2-0.5
				c-0.1,0-1.5,0-1.2,0.4c2.3,2.3,4.7,4.6,7.8,5.7c2.6,0.9,5.4,0.9,8-0.1c2.6-1.1,3.8-4,2.8-6.6c-1-3.1-3.9-4.9-6.7-6.2
				c-3.4-1.6-6.8-3.1-10.3-4.6c-3.2-1.4-6.3-3-9.8-3.4c-2.6-0.4-5.8-0.3-7.7,1.9c-1.7,1.9-1.6,4.6-0.7,6.9
				c2.7,6.7,11.6,6.9,17.7,6.9c0.4,0,1,0,0.6-0.5s-1.7-0.4-2.2-0.4L53,193.3z"/>
		</g>
		
			<radialGradient id="SVGID_5_" cx="15.83" cy="109.32" r="14.19" gradientTransform="matrix(1 0 0 -1 -21.19 371.06)" gradientUnits="userSpaceOnUse">
			<stop  offset="0" style="stop-color:#FFFFFF"/>
			<stop  offset="0" style="stop-color:#FEF6F9"/>
			<stop  offset="0.97" style="stop-color:#EC008C"/>
		</radialGradient>
		<path class="st4" d="M60.3,203.6c-0.4,0.2-19.9-9-23.4-9.2c-7.6-0.4-9.2,0.4-9.5,7.6c-0.3,5.7-0.3,14.8,6.1,15.2
			C40.5,217.7,54,206.9,60.3,203.6z"/>
		
			<radialGradient id="SVGID_6_" cx="19.25" cy="95.87" r="9.98" gradientTransform="matrix(1 0 0 -1 -21.19 371.06)" gradientUnits="userSpaceOnUse">
			<stop  offset="0" style="stop-color:#FFFFFF"/>
			<stop  offset="0" style="stop-color:#FEF6F9"/>
			<stop  offset="0.97" style="stop-color:#EC008C"/>
		</radialGradient>
		<path class="st5" d="M35.3,226.9c1.6,3.9,6,5.9,10,4.3c1.6-0.6,2.9-1.8,3.8-3.2c2.5-4.2,1-10.9,5.3-13.4c-8,2.6-15.8,5.8-23.3,9.6
			l2.6,2.1"/>
		
			<radialGradient id="SVGID_7_" cx="38.36" cy="102.78" r="8.71" gradientTransform="matrix(1 0 0 -1 -21.19 371.06)" gradientUnits="userSpaceOnUse">
			<stop  offset="0" style="stop-color:#FFFFFF"/>
			<stop  offset="0" style="stop-color:#FEF6F9"/>
			<stop  offset="0.97" style="stop-color:#EC008C"/>
		</radialGradient>
		<path class="st6" d="M52.3,226.6c6,1.7,12.5,0.6,17.7-3c-4.3-1.9-2.1-9.4-5.8-12.3c-2.8-2.3-7.4-0.1-8.8,3.2s-0.7,7.1,0,10.7"/>
		
			<radialGradient id="SVGID_8_" cx="132.8036" cy="97.6418" r="49.7153" gradientTransform="matrix(0.97 0.26 0.26 -0.98 -36.26 323.49)" gradientUnits="userSpaceOnUse">
			<stop  offset="0" style="stop-color:#FFFFFF"/>
			<stop  offset="0" style="stop-color:#FEF6F9"/>
			<stop  offset="0.97" style="stop-color:#EC008C"/>
		</radialGradient>
		<path class="st7" d="M80.4,204.6c5.6-2.7,11.4,3.1,14.9,8.2c23.3,34.3,43.8,70.5,61.3,108.2l-1.2-2.7
			c-16.9-23.5-33.6-47.1-50.6-70.5c-4.9-6.8-10.4-13.1-16.6-18.8c-3.8-3.5-9.3-7.1-11.1-12.3C74.9,210.1,79.2,209.4,80.4,204.6z"/>
		
			<radialGradient id="SVGID_9_" cx="65.59" cy="86.48" r="13.74" gradientTransform="matrix(1 0 0 -1 -21.19 371.06)" gradientUnits="userSpaceOnUse">
			<stop  offset="0" style="stop-color:#FFFFFF"/>
			<stop  offset="0" style="stop-color:#FEF6F9"/>
			<stop  offset="0.97" style="stop-color:#EC008C"/>
		</radialGradient>
		<path class="st8" d="M84.8,248.7c-4.3-0.4-8.7-0.8-12.3-3.2s-5.6-7.5-3.3-11.1c1.8-2.8,5.7-3.7,8.9-2.9s6,3,8.4,5.3
			c5.1,5,9.4,10.8,12.7,17.2c-5.9,1.5-12-0.9-15.4-5.9"/>
		
			<radialGradient id="SVGID_10_" cx="53.02" cy="68.96" r="18.84" gradientTransform="matrix(1 0 0 -1 -21.19 371.06)" gradientUnits="userSpaceOnUse">
			<stop  offset="0" style="stop-color:#FFFFFF"/>
			<stop  offset="0" style="stop-color:#FEF6F9"/>
			<stop  offset="0.97" style="stop-color:#EC008C"/>
		</radialGradient>
		<path class="st9" d="M59.4,269.2c1.6,0.9,3.5,1.4,5.3,1.5c8.7,0.4,16.1-7.3,24.4-8.8c-8.3-7.9-19.3-13.8-28.3-21.3
			c-2.1-1.8-4.5-3.6-7.2-3.2c-2.3,0.5-4.1,2.2-4.7,4.5c-0.6,2.2-0.7,4.5-0.3,6.8c0.5,5,1.5,10,4.1,14.2
			C54.3,265.6,56.6,267.7,59.4,269.2z"/>
		
			<radialGradient id="SVGID_11_" cx="15.21" cy="72.49" r="8.1" gradientTransform="matrix(1 0 0 -1 -21.19 371.06)" gradientUnits="userSpaceOnUse">
			<stop  offset="0" style="stop-color:#FFFFFF"/>
			<stop  offset="0" style="stop-color:#FEF6F9"/>
			<stop  offset="0.97" style="stop-color:#EC008C"/>
		</radialGradient>
		<path class="st10" d="M26.4,235.3c4.4-1.5,13.6-0.8,14.2,4.9c0.5,4.4-6.4,8.5-8.6,11.7"/>
		
			<radialGradient id="SVGID_12_" cx="25.46" cy="55.75" r="8.93" gradientTransform="matrix(1 0 0 -1 -21.19 371.06)" gradientUnits="userSpaceOnUse">
			<stop  offset="0" style="stop-color:#FFFFFF"/>
			<stop  offset="0" style="stop-color:#FEF6F9"/>
			<stop  offset="0.97" style="stop-color:#EC008C"/>
		</radialGradient>
		<path class="st11" d="M32.3,266.1c0.2-3.9,2.2-7.5,4.1-11c0.7-1.5,1.7-2.7,3-3.7c1.3-0.9,3.4-0.9,4.4,0.4c1,1.3,0.5,3,0.1,4.5
			c-1.1,3.5-2.6,14.5-5.7,16.6C34.1,275.6,32.2,269.7,32.3,266.1z"/>
		
			<radialGradient id="SVGID_13_" cx="39.75" cy="40.67" r="8.73" gradientTransform="matrix(1 0 0 -1 -21.19 371.06)" gradientUnits="userSpaceOnUse">
			<stop  offset="0" style="stop-color:#FFFFFF"/>
			<stop  offset="0" style="stop-color:#FEF6F9"/>
			<stop  offset="0.97" style="stop-color:#EC008C"/>
		</radialGradient>
		<path class="st12" d="M46.8,288.7c-2.4,1.8-5.9-0.8-6.3-3.7s1.3-5.7,3-8s3.6-4.9,3.6-7.9c2.8,4,4.6,8.6,5.3,13.4
			c0.4,1.9,0.3,3.8-0.3,5.6c-0.7,1.8-2.4,3.1-4.3,3.1c-1.9-0.1-3.5-2.3-2.6-4"/>
		
			<radialGradient id="SVGID_14_" cx="64.7" cy="36.03" r="14.71" gradientTransform="matrix(1 0 0 -1 -21.19 371.06)" gradientUnits="userSpaceOnUse">
			<stop  offset="0" style="stop-color:#FFFFFF"/>
			<stop  offset="0" style="stop-color:#FEF6F9"/>
			<stop  offset="0.97" style="stop-color:#EC008C"/>
		</radialGradient>
		<path class="st13" d="M67.1,276.1c1.8-1.3,4.4-2.5,6.1-1.1c0.7,0.7,1.2,1.6,1.4,2.6l5.7,17.8c4.2,13-9.1,16.3-17.7,8.7
			C53,295.5,58.2,282.7,67.1,276.1z"/>
		
			<radialGradient id="SVGID_15_" cx="218.9055" cy="7.5695" r="34.4" gradientTransform="matrix(0.89 0.24 0.24 -0.91 -68.66 251.47)" gradientUnits="userSpaceOnUse">
			<stop  offset="0" style="stop-color:#FFFFFF"/>
			<stop  offset="0" style="stop-color:#FEF6F9"/>
			<stop  offset="0.97" style="stop-color:#EC008C"/>
		</radialGradient>
		<path class="st14" d="M104.4,276.9c-2.2-2.1-4.4-4.4-5.5-7.3s-0.7-6.6,1.8-8.5s5.7-1.3,8.1,0.3s4,4.2,5.6,6.6
			c13.1,21,26.3,41.9,39.4,62.9C137.9,312.1,121.9,294.2,104.4,276.9z"/>
		
			<radialGradient id="SVGID_16_" cx="203.8475" cy="56.1208" r="36.08" gradientTransform="matrix(0.9 0.24 0.26 -0.98 -80.47 310.54)" gradientUnits="userSpaceOnUse">
			<stop  offset="0" style="stop-color:#FFFFFF"/>
			<stop  offset="0" style="stop-color:#FEF6F9"/>
			<stop  offset="0.97" style="stop-color:#EC008C"/>
		</radialGradient>
		<path class="st15" d="M80.6,287.5c-0.6-4.6-0.4-10,2.8-13.3s8.2-3.3,12-1.4s6.6,5.4,9.3,8.8l45.8,57.7l-19.1-13.8
			c-10.1-7.3-21.2-15.1-34-15.1c-5.6,0-7.3,0.8-10.7-4.7C83.4,300.1,81.4,294,80.6,287.5z"/>
		
			<radialGradient id="SVGID_17_" cx="314.86" cy="127.73" r="17.13" gradientTransform="matrix(1 0 0 -1 -21.19 371.06)" gradientUnits="userSpaceOnUse">
			<stop  offset="0" style="stop-color:#FFFFFF"/>
			<stop  offset="0" style="stop-color:#FEF6F9"/>
			<stop  offset="0.97" style="stop-color:#EC008C"/>
		</radialGradient>
		<path class="st16" d="M318.9,259.3c11.5-1.5,23.3,0,34.1,4.3c3,1.2,6.4,3.5,5.8,6.6c-0.5,1.9-2,3.3-3.9,3.7
			c-1.8,0.4-3.7,0.4-5.6,0c-8.9-1.1-18.8-1-27.5-2.8C315.1,269.8,308.2,260.7,318.9,259.3z"/>
		
			<radialGradient id="SVGID_18_" cx="317.03" cy="108.36" r="14.3" gradientTransform="matrix(1 0 0 -1 -21.19 371.06)" gradientUnits="userSpaceOnUse">
			<stop  offset="0" style="stop-color:#FFFFFF"/>
			<stop  offset="0" style="stop-color:#FEF6F9"/>
			<stop  offset="0.97" style="stop-color:#EC008C"/>
		</radialGradient>
		<path class="st17" d="M322.8,279.6c-2.4-1.8-5.3-3.9-4.9-6.9l25.1,10.1c2.2,0.9,4.4,1.8,6,3.5s2.3,4.5,0.9,6.4
			c-1.1,1.5-3.1,2.1-5,2.3c-5.8,0.5-8.3,2.9-12-1.4C329,289.1,328,283.6,322.8,279.6z"/>
		
			<radialGradient id="SVGID_19_" cx="294.55" cy="98.78" r="10.29" gradientTransform="matrix(1 0 0 -1 -21.19 371.06)" gradientUnits="userSpaceOnUse">
			<stop  offset="0" style="stop-color:#FFFFFF"/>
			<stop  offset="0" style="stop-color:#FEF6F9"/>
			<stop  offset="0.97" style="stop-color:#EC008C"/>
		</radialGradient>
		<path class="st18" d="M300.3,286.7c2,2.1,6.4,0.4,6.5-2.5c1-3.7,4.8-5.8,8.5-4.9c-1.6,4.1-0.3,8.6,0.4,12.9
			c1,5.7,0.5,12.6-5.9,8.8C304.5,297.9,304.1,290.6,300.3,286.7z"/>
		
			<radialGradient id="SVGID_20_" cx="314.61" cy="95.67" r="10.32" gradientTransform="matrix(1 0 0 -1 -21.19 371.06)" gradientUnits="userSpaceOnUse">
			<stop  offset="0" style="stop-color:#FFFFFF"/>
			<stop  offset="0" style="stop-color:#FEF6F9"/>
			<stop  offset="0.97" style="stop-color:#EC008C"/>
		</radialGradient>
		<path class="st19" d="M333.7,306.3c-4.1-1.3-5.8-6.2-6.5-10.5s-1.1-9.1-4.4-12c-0.1-0.1-4.8,18-3.6,21.1
			C321.4,311,328.8,310.2,333.7,306.3z"/>
		
			<radialGradient id="SVGID_21_" cx="307.94" cy="76.34" r="5.93" gradientTransform="matrix(1 0 0 -1 -21.19 371.06)" gradientUnits="userSpaceOnUse">
			<stop  offset="0" style="stop-color:#FFFFFF"/>
			<stop  offset="0" style="stop-color:#FEF6F9"/>
			<stop  offset="0.97" style="stop-color:#EC008C"/>
		</radialGradient>
		<path class="st20" d="M312.3,307.9c2.2,0,4.5,0,6.5,0.9s3.6,3.2,3,5.4c-0.8,2.9-4.9,4.1-5.2,7.1L312.3,307.9"/>
		
			<radialGradient id="SVGID_22_" cx="303.91" cy="57.92" r="7.2" gradientTransform="matrix(1 0 0 -1 -21.19 371.06)" gradientUnits="userSpaceOnUse">
			<stop  offset="0" style="stop-color:#FFFFFF"/>
			<stop  offset="0" style="stop-color:#FEF6F9"/>
			<stop  offset="0.97" style="stop-color:#EC008C"/>
		</radialGradient>
		<path class="st21" d="M302.6,338.8c0-3.8,0.1-7.8,2-11.1s6.2-5.5,9.6-3.8l-6.6,16.4l-6.9-1.3"/>
		
			<radialGradient id="SVGID_23_" cx="196.19" cy="106.112" r="51.55" gradientTransform="matrix(1.09 0.29 0.26 -0.99 -3.94 342.33)" gradientUnits="userSpaceOnUse">
			<stop  offset="0" style="stop-color:#FFFFFF"/>
			<stop  offset="0" style="stop-color:#FEF6F9"/>
			<stop  offset="0.97" style="stop-color:#EC008C"/>
		</radialGradient>
		<path class="st22" d="M300.5,277.6c4.1-3.3,8-8.4,5.5-13.1c-3-5.6-11.8-5-18.2-3.2c-46.5,13.1-89.1,36.6-123.1,67.9l76.1-31
			C260.7,290.2,283.4,291.1,300.5,277.6z"/>
		
			<radialGradient id="SVGID_24_" cx="267.08" cy="85.28" r="13.18" gradientTransform="matrix(1 0 0 -1 -21.19 371.06)" gradientUnits="userSpaceOnUse">
			<stop  offset="0" style="stop-color:#FFFFFF"/>
			<stop  offset="0" style="stop-color:#FEF6F9"/>
			<stop  offset="0.97" style="stop-color:#EC008C"/>
		</radialGradient>
		<path class="st23" d="M289.8,300.9c3.4-1.3,7-4.2,6.1-7.6c-0.6-2.1-2.8-3.5-4.9-3.7c-2.2-0.1-4.4,0.2-6.4,1
			c-7.4,2.1-16.4,3.5-23.2,7C267.4,304.5,282,303.8,289.8,300.9z"/>
		
			<radialGradient id="SVGID_25_" cx="280.35" cy="66.86" r="16.32" gradientTransform="matrix(1 0 0 -1 -21.19 371.06)" gradientUnits="userSpaceOnUse">
			<stop  offset="0" style="stop-color:#FFFFFF"/>
			<stop  offset="0" style="stop-color:#FEF6F9"/>
			<stop  offset="0.97" style="stop-color:#EC008C"/>
		</radialGradient>
		<path class="st24" d="M276.5,317.5c1.3,3.3,1.6,7.2,4.1,9.9c2.2,2.1,5.3,3.1,8.3,2.7c3-0.5,5.8-1.6,8.4-3.2c3.5-2,6.9-4.5,8.6-8.2
			s1.1-8.6-2.3-10.8c-2.3-1.5-5.2-1.4-7.9-1.3c-6.5,0.3-21.1-1.9-26.2,2.3C271.8,311.7,275,313.8,276.5,317.5z"/>
		
			<radialGradient id="SVGID_26_" cx="198.3438" cy="-21.181" r="34.42" gradientTransform="matrix(1.05 0.28 0.23 -0.88 12.22 246.19)" gradientUnits="userSpaceOnUse">
			<stop  offset="0" style="stop-color:#FFFFFF"/>
			<stop  offset="0" style="stop-color:#FEF6F9"/>
			<stop  offset="0.97" style="stop-color:#EC008C"/>
		</radialGradient>
		<path class="st25" d="M244.2,302.4c3.5-1.6,8-3.1,11.5-1.1c4.1,2.3,3.5,7.9,0.2,10.5s-8.2,3.1-12.8,3.6
			c-27.9,3.2-52.9,7.2-76.9,18.8c6.6-3.2,10-5.8,16.6-9.4c7.1-3.9,14.5-6.9,22.3-9.1C219,311.9,231.2,308.2,244.2,302.4z"/>
		
			<radialGradient id="SVGID_27_" cx="226.1393" cy="-8.8673" r="36.339" gradientTransform="matrix(1.01 0.27 0.24 -0.9 -8.32 261.17)" gradientUnits="userSpaceOnUse">
			<stop  offset="0" style="stop-color:#FFFFFF"/>
			<stop  offset="0" style="stop-color:#FEF6F9"/>
			<stop  offset="0.97" style="stop-color:#EC008C"/>
		</radialGradient>
		<path class="st26" d="M252.2,319.4c3.2-0.2,10.9-4.6,13.6-2.9c3.7,2.4-0.1,11.7-1.2,15.5c-2.7,9.6-13.1,16.7-24.3,16.4
			c-7.1-0.2-13.9-2.9-20.8-4.9c-7.5-2.2-15.3-3.4-23.1-3.7c-5-0.2-24.8,6.9-28.4,3.3c7.5-7.1,33.4-14.6,43.9-17.3
			C225.2,322.5,238.6,320.3,252.2,319.4z"/>
		
			<radialGradient id="SVGID_28_" cx="250.74" cy="-66.52" r="25.13" gradientTransform="matrix(1 0 0 -1 -21.19 371.06)" gradientUnits="userSpaceOnUse">
			<stop  offset="0" style="stop-color:#FFFFFF"/>
			<stop  offset="0" style="stop-color:#FEF6F9"/>
			<stop  offset="0.97" style="stop-color:#EC008C"/>
		</radialGradient>
		<path class="st27" d="M215.5,403.5c2.9,10,9,18.8,17.3,25c4,3,9.1,6.3,8.7,11.3c-12.1,5-20.9,15.8-23.3,28.7v-15.2
			c0-8.2-4-13.3-3.1-21.3C216.2,422.7,218.1,412.9,215.5,403.5z"/>
		
			<radialGradient id="SVGID_29_" cx="273" cy="-48.2" r="9.73" gradientTransform="matrix(1 0 0 -1 -21.19 371.06)" gradientUnits="userSpaceOnUse">
			<stop  offset="0" style="stop-color:#FFFFFF"/>
			<stop  offset="0" style="stop-color:#FEF6F9"/>
			<stop  offset="0.97" style="stop-color:#EC008C"/>
		</radialGradient>
		<path class="st28" d="M241.7,436.3l7.1-23.6c1.9,3.2,3.5,6.6,4.7,10.2c1.1,3,1.9,6.3,1.2,9.5s-3.5,6-6.7,5.9s-5.8-4.3-3.9-6.8"/>
		
			<radialGradient id="SVGID_30_" cx="276.07" cy="-22.39" r="9.02" gradientTransform="matrix(1 0 0 -1 -21.19 371.06)" gradientUnits="userSpaceOnUse">
			<stop  offset="0" style="stop-color:#FFFFFF"/>
			<stop  offset="0" style="stop-color:#FEF6F9"/>
			<stop  offset="0.97" style="stop-color:#EC008C"/>
		</radialGradient>
		<path class="st29" d="M257.5,389.3c2.4,2,4.6,4.3,6.3,7c1.6,2.7,2.2,6.2,0.9,9c-2,4.3-7.2,5.6-11.8,6.5"/>
		
			<radialGradient id="SVGID_31_" cx="255.79" cy="-39.72" r="9.63" gradientTransform="matrix(1 0 0 -1 -21.19 371.06)" gradientUnits="userSpaceOnUse">
			<stop  offset="0" style="stop-color:#FFFFFF"/>
			<stop  offset="0" style="stop-color:#FEF6F9"/>
			<stop  offset="0.97" style="stop-color:#EC008C"/>
		</radialGradient>
		<path class="st30" d="M225.6,422.1l5.5-21.4c8.6,4.8,12.8,15,10,24.5c-5.2-0.4-10.3-1.7-15.1-3.8"/>
		
			<radialGradient id="SVGID_32_" cx="259.05" cy="-15.81" r="11.13" gradientTransform="matrix(1 0 0 -1 -21.19 371.06)" gradientUnits="userSpaceOnUse">
			<stop  offset="0" style="stop-color:#FFFFFF"/>
			<stop  offset="0" style="stop-color:#FEF6F9"/>
			<stop  offset="0.97" style="stop-color:#EC008C"/>
		</radialGradient>
		<path class="st31" d="M242.3,403.8l10.2-5.9c-5.9-4.4-8.2-12.2-5.7-19.2c-1.6-1.9-4.9-1.4-6.7,0.4s-2.2,4.5-2.3,7"/>
		
			<radialGradient id="SVGID_33_" cx="261.1" cy="-0.56" r="9.12" gradientTransform="matrix(1 0 0 -1 -21.19 371.06)" gradientUnits="userSpaceOnUse">
			<stop  offset="0" style="stop-color:#FFFFFF"/>
			<stop  offset="0" style="stop-color:#FEF6F9"/>
			<stop  offset="0.97" style="stop-color:#EC008C"/>
		</radialGradient>
		<path class="st32" d="M254,387.1l-7.8-22.2c8.1,1.8,13.2,9.8,11.4,17.9c-0.4,2-1.3,3.9-2.5,5.6c-2-0.1-3.5-1.8-3.3-3.8
			c0-0.5,0.1-0.9,0.3-1.3"/>
		
			<radialGradient id="SVGID_34_" cx="270.9" cy="-129.71" r="14.28" gradientTransform="matrix(1 0 0 -1 -21.19 371.06)" gradientUnits="userSpaceOnUse">
			<stop  offset="0" style="stop-color:#FFFFFF"/>
			<stop  offset="0" style="stop-color:#FEF6F9"/>
			<stop  offset="0.97" style="stop-color:#EC008C"/>
		</radialGradient>
		<path class="st33" d="M228.9,507.5c1.4-8.2-0.7-16.6-6-23c8.8,7.3,13.1,18.6,11.4,29.9c-0.2,2.1-1,4.1-2.2,5.8
			c-1.3,1.7-3.5,2.6-5.6,2.2c-2.7-0.7-4.1-4-3.7-6.7s2.1-5.1,3.7-7.4"/>
		
			<radialGradient id="SVGID_35_" cx="239.54" cy="-92.32" r="11.55" gradientTransform="matrix(1 0 0 -1 -21.19 371.06)" gradientUnits="userSpaceOnUse">
			<stop  offset="0" style="stop-color:#FFFFFF"/>
			<stop  offset="0" style="stop-color:#FEF6F9"/>
			<stop  offset="0.97" style="stop-color:#EC008C"/>
		</radialGradient>
		<path class="st34" d="M204.2,472.2c-3.1-3.9-5.1-8.5-5.9-13.4c-0.6-3.9,0-8.3,3.1-10.7s8.1-1.7,11,1.1s4,7,3.8,11
			s-1.5,7.9-2.9,11.7l-8.8,1.3"/>
		
			<radialGradient id="SVGID_36_" cx="218.51" cy="-102.94" r="10.93" gradientTransform="matrix(1 0 0 -1 -21.19 371.06)" gradientUnits="userSpaceOnUse">
			<stop  offset="0" style="stop-color:#FFFFFF"/>
			<stop  offset="0" style="stop-color:#FEF6F9"/>
			<stop  offset="0.97" style="stop-color:#EC008C"/>
		</radialGradient>
		<path class="st35" d="M187.8,475.6l2.8-23.2l-11,11.4c-2.8,2.9-5.8,6.6-4.6,10.5c0.9,3,4.1,4.7,7.1,3.7c2.2-0.7,3.7-2.6,4-4.9"/>
		
			<radialGradient id="SVGID_37_" cx="202.84" cy="-87.48" r="9.87" gradientTransform="matrix(1 0 0 -1 -21.19 371.06)" gradientUnits="userSpaceOnUse">
			<stop  offset="0" style="stop-color:#FFFFFF"/>
			<stop  offset="0" style="stop-color:#FEF6F9"/>
			<stop  offset="0.97" style="stop-color:#EC008C"/>
		</radialGradient>
		<path class="st36" d="M162.1,453.8c-0.9-1.8-0.2-4.2,1.2-5.7c1.5-1.4,3.3-2.5,5.2-3.2l15.4-6.9l-6.9,15.2
			c-4.6-1.2-9.5-0.8-13.9,1.2"/>
		
			<radialGradient id="SVGID_38_" cx="167.3451" cy="-24.1052" r="33.01" gradientTransform="matrix(1.06 0.28 0.26 -0.97 0.31 323.22)" gradientUnits="userSpaceOnUse">
			<stop  offset="0" style="stop-color:#FFFFFF"/>
			<stop  offset="0" style="stop-color:#FEF6F9"/>
			<stop  offset="0.97" style="stop-color:#EC008C"/>
		</radialGradient>
		<path class="st37" d="M174.3,406.7c-1.6-7.1-5.2-13.8-8.7-20.4s-6.6-13.6-7.1-20.8s2.3-14.9,8.7-18.7c-3.8,9.4-1.2,20.2,3.2,29.7
			s10.6,18.3,14.5,28s5.2,20.8-0.2,29.5c-5.2-1.1-9.4-6-9.3-10.8l0.4,6c0.2,1.4,0,2.9-0.5,4.2c-1.5,2.8-3.8,1.7-5-0.2
			c-0.9-1.4,2.3-5.7,2.7-7C175.1,419.8,175.6,413.1,174.3,406.7z"/>
		
			<radialGradient id="SVGID_39_" cx="216.33" cy="-39.57" r="40.66" gradientTransform="matrix(1 0 0 -1 -21.19 371.06)" gradientUnits="userSpaceOnUse">
			<stop  offset="0" style="stop-color:#FFFFFF"/>
			<stop  offset="0" style="stop-color:#FEF6F9"/>
			<stop  offset="0.97" style="stop-color:#EC008C"/>
		</radialGradient>
		<path class="st38" d="M244.7,369.7c-10.3,5.8-16.3,17-15.6,28.8c-0.3-5.3-7.2-9.1-11.8-6.4c-3.3,1.9-4.8,6-4.9,9.8
			s0.7,7.6,0.9,11.4c0.8,15.2-11,30.1-26.1,32.7c4.8-6.3,6.3-14.6,5.7-22.5s-3.1-15.5-5.6-23c-4.9-14.8-12-30.4-14.7-45.7
			c4.9-0.7,9,4.9,12.8,7.7c5.8,4.3,12.3,7.5,19.2,9.5C216.1,375.3,234.1,376.7,244.7,369.7z"/>
		
			<radialGradient id="SVGID_40_" cx="213.81" cy="8.07" r="26.01" gradientTransform="matrix(1 0 0 -1 -21.19 371.06)" gradientUnits="userSpaceOnUse">
			<stop  offset="0" style="stop-color:#FFFFFF"/>
			<stop  offset="0" style="stop-color:#FEF6F9"/>
			<stop  offset="0.97" style="stop-color:#EC008C"/>
		</radialGradient>
		<path class="st39" d="M172.8,346.4l24.2,4.1l31.2,5.3c5.5,0.9,11.3,2,15.6,5.5c-5.9,5-14,6.3-21.2,3.3c-2.9-1.2-5.5-3.1-8.5-4.1
			c-3.7-1.2-5.5,1.3-8.6,1.3c-3.9,0-7.3-1.2-10.9-2.7C188.1,356.5,179,347.4,172.8,346.4z"/>
		
			<radialGradient id="SVGID_41_" cx="48.47" cy="-135.38" r="12.84" gradientTransform="matrix(1 0 0 -1 -21.19 371.06)" gradientUnits="userSpaceOnUse">
			<stop  offset="0" style="stop-color:#FFFFFF"/>
			<stop  offset="0" style="stop-color:#FEF6F9"/>
			<stop  offset="0.97" style="stop-color:#EC008C"/>
		</radialGradient>
		<path class="st40" d="M12.2,454.1c0.6,2.9,1.2,5.9,0.5,8.8s-3.1,5.5-6.1,5.5c-4.1,0-6.6-5.3-5.3-9.3s4.7-6.7,8-9.2
			c2.7-5.4,7.5-9.5,13.3-11.2c-5.6,3.7-9.5,9.3-11.1,15.8"/>
		
			<radialGradient id="SVGID_42_" cx="119.39" cy="-84.6" r="9.94" gradientTransform="matrix(1 0 0 -1 -21.19 371.06)" gradientUnits="userSpaceOnUse">
			<stop  offset="0" style="stop-color:#FFFFFF"/>
			<stop  offset="0" style="stop-color:#FEF6F9"/>
			<stop  offset="0.97" style="stop-color:#EC008C"/>
		</radialGradient>
		<path class="st41" d="M83.3,428.5l4.4-20l3.9,2.8c5.5,6.5,7.7,15.2,5.8,23.6l-13.1-7.5"/>
		
			<radialGradient id="SVGID_43_" cx="102.73" cy="-98.52" r="12.19" gradientTransform="matrix(1 0 0 -1 -21.19 371.06)" gradientUnits="userSpaceOnUse">
			<stop  offset="0" style="stop-color:#FFFFFF"/>
			<stop  offset="0" style="stop-color:#FEF6F9"/>
			<stop  offset="0.97" style="stop-color:#EC008C"/>
		</radialGradient>
		<path class="st42" d="M65.1,437.6l6.6-23.9c3.3,7.5,5,15.6,4.8,23.8c0.1,2.1-0.3,4.1-1.1,6c-0.9,1.9-2.7,3.2-4.8,3.3
			c-2.8,0-4.9-2.9-5.1-5.7s1-5.5,2.1-8.1"/>
		
			<radialGradient id="SVGID_44_" cx="82.64" cy="-88.77" r="12.28" gradientTransform="matrix(1 0 0 -1 -21.19 371.06)" gradientUnits="userSpaceOnUse">
			<stop  offset="0" style="stop-color:#FFFFFF"/>
			<stop  offset="0" style="stop-color:#FEF6F9"/>
			<stop  offset="0.97" style="stop-color:#EC008C"/>
		</radialGradient>
		<path class="st43" d="M67.3,404.8l-9.3-1c1,0.1-13.4,19.7-14.9,21.2c5.1,3.3,10.4,7.3,16.1,3.8C66,424.6,68.3,411.9,67.3,404.8z"
			/>
		
			<radialGradient id="SVGID_45_" cx="71.08" cy="-68.5" r="25.6" gradientTransform="matrix(1 0 0 -1 -21.19 371.06)" gradientUnits="userSpaceOnUse">
			<stop  offset="0" style="stop-color:#FFFFFF"/>
			<stop  offset="0" style="stop-color:#FEF6F9"/>
			<stop  offset="0.97" style="stop-color:#EC008C"/>
		</radialGradient>
		<path class="st44" d="M43,402.7c-1.3,6.9-2.6,13.9-3.9,20.9l14.3-22l3.3-5.1l2.8-4.4l15.7-24.3c-7.3-0.8-13.6,4.9-19.1,9.8
			c-3.3,3-20.1,1.5-21.6,5.3C33.3,386.2,43.8,398.3,43,402.7z"/>
		
			<radialGradient id="SVGID_46_" cx="70.41" cy="-38.76" r="9.75" gradientTransform="matrix(1 0 0 -1 -21.19 371.06)" gradientUnits="userSpaceOnUse">
			<stop  offset="0" style="stop-color:#FFFFFF"/>
			<stop  offset="0" style="stop-color:#FEF6F9"/>
			<stop  offset="0.97" style="stop-color:#EC008C"/>
		</radialGradient>
		<path class="st45" d="M47.8,366.7c4.5-6.5,11.8-10.3,19.7-10.3c0.1,3.8-1.3,7.6-4,10.3c-4.2,4.4-10.7,5.6-16.8,6.6l2.4-8.7"/>
		
			<radialGradient id="SVGID_47_" cx="52.4" cy="-43.26" r="9.86" gradientTransform="matrix(1 0 0 -1 -21.19 371.06)" gradientUnits="userSpaceOnUse">
			<stop  offset="0" style="stop-color:#FFFFFF"/>
			<stop  offset="0" style="stop-color:#FEF6F9"/>
			<stop  offset="0.97" style="stop-color:#EC008C"/>
		</radialGradient>
		<path class="st46" d="M31.7,366.8l13.4-13.5c-1.4,8.3-2.8,16.7-4.2,25c-4.5-2-7.4-6.3-7.6-11.2"/>
		
			<radialGradient id="SVGID_48_" cx="62.58" cy="-14.83" r="10.08" gradientTransform="matrix(1 0 0 -1 -21.19 371.06)" gradientUnits="userSpaceOnUse">
			<stop  offset="0" style="stop-color:#FFFFFF"/>
			<stop  offset="0" style="stop-color:#FEF6F9"/>
			<stop  offset="0.97" style="stop-color:#EC008C"/>
		</radialGradient>
		<path class="st47" d="M45.4,339.2c4.5,1.7,7.6,5.8,8.1,10.5c3.5-0.2,7.4-0.7,9.7-3.3c1.9-2.2,2.2-5.4,1.5-8.2
			c-0.9-2.8-2.2-5.4-3.8-7.7c-5.8-1.8-12.8,2.3-13.9,8.3"/>
		
			<radialGradient id="SVGID_49_" cx="107.5" cy="-36.44" r="38.76" gradientTransform="matrix(1 0 0 -1 -21.19 371.06)" gradientUnits="userSpaceOnUse">
			<stop  offset="0" style="stop-color:#FFFFFF"/>
			<stop  offset="0" style="stop-color:#FEF6F9"/>
			<stop  offset="0.97" style="stop-color:#EC008C"/>
		</radialGradient>
		<path class="st48" d="M67.2,352.5c3.4-4,10.7-2,13.1,2.7s1.2,10.4-1.1,15.2s-5.5,9-7.3,14c-3.2,9.7-0.4,20.4,7.1,27.3
			c-1-20.5,11.3-41.1,30-49.7c5.7-2.7,11.9-4.3,17.5-7.2s10.7-7.8,11.8-14c-10.4,4.3-21.9,5.1-32.7,2.3c-6.9-1.9-13.4-4.8-19.5-8.5
			c-2.3-1.3-13.1-10.7-15.5-9.5c-4.5,2.1,0.4,8.6,0.9,12C72.3,342.6,70.8,348.2,67.2,352.5z"/>
		
			<radialGradient id="SVGID_50_" cx="131.96" cy="-33.08" r="33.1" gradientTransform="matrix(1 0 0 -1 -21.19 371.06)" gradientUnits="userSpaceOnUse">
			<stop  offset="0" style="stop-color:#FFFFFF"/>
			<stop  offset="0" style="stop-color:#FEF6F9"/>
			<stop  offset="0.97" style="stop-color:#EC008C"/>
		</radialGradient>
		<path class="st49" d="M134.6,358.3l9.5-19.8l4.4,1.1c-7.5,19.7-19.9,37.1-35.9,50.7c-6.1,5.2-7.3,16.8-10.4,24.2
			c-3.1-3.3-4.4-7.8-3.7-12.2l-7,2.6c-1.6-11.5,3.8-23.1,12.2-31.2S123.6,361.9,134.6,358.3z"/>
		
			<radialGradient id="SVGID_51_" cx="45.19" cy="-21.97" r="10.34" gradientTransform="matrix(1 0 0 -1 -21.19 371.06)" gradientUnits="userSpaceOnUse">
			<stop  offset="0" style="stop-color:#FFFFFF"/>
			<stop  offset="0" style="stop-color:#FEF6F9"/>
			<stop  offset="0.97" style="stop-color:#EC008C"/>
		</radialGradient>
		<path class="st50" d="M28.6,347.6c4.5-0.9,9.3,3.3,9,7.9c0.4-8.8,3.7-17.2,9.5-23.8c-9.5,0.1-18.3,8.1-19.4,17.5"/>
		
			<radialGradient id="SVGID_52_" cx="58.66" cy="2.19" r="10.41" gradientTransform="matrix(1 0 0 -1 -21.19 371.06)" gradientUnits="userSpaceOnUse">
			<stop  offset="0" style="stop-color:#FFFFFF"/>
			<stop  offset="0" style="stop-color:#FEF6F9"/>
			<stop  offset="0.97" style="stop-color:#EC008C"/>
		</radialGradient>
		<path class="st51" d="M44.9,322.1l7.3,9.4c2.9-7.4,9.1-12.9,16.7-14.9c-6.9-5.1-16.5-3.6-21.6,3.3c-0.7,0.9-1.2,1.9-1.7,2.9"/>
		
			<radialGradient id="SVGID_53_" cx="103.96" cy="10.93" r="24.71" gradientTransform="matrix(1 0 0 -1 -21.19 371.06)" gradientUnits="userSpaceOnUse">
			<stop  offset="0" style="stop-color:#FFFFFF"/>
			<stop  offset="0" style="stop-color:#FEF6F9"/>
			<stop  offset="0.97" style="stop-color:#EC008C"/>
		</radialGradient>
		<path class="st52" d="M118.2,327.2l17.1,7.6c-7.1,4.1-16,1.7-23.8-0.8c-16.2-5.1-29.8-8-41.9-20.1
			C85.9,311.9,103.8,320.7,118.2,327.2z"/>
		
			<radialGradient id="SVGID_54_" cx="84.7573" cy="-91.7876" r="8.2933" gradientTransform="matrix(0.9992 -3.995740e-02 -3.995740e-02 -0.9992 204.1335 255.7839)" gradientUnits="userSpaceOnUse">
			<stop  offset="0" style="stop-color:#FFFFFF"/>
			<stop  offset="0" style="stop-color:#FEF6F9"/>
			<stop  offset="0.97" style="stop-color:#EC008C"/>
		</radialGradient>
		<path class="st53" d="M296.6,333.6c2.1,4.8,1.4,10.3-1.8,14.4c-1.9,2.3-4.5,5.4-6.9,6.6c-1.3-3.8-0.3-8.4,1.2-12
			C289.5,341.7,296.2,332.8,296.6,333.6z"/>
	</g>
	<g>
		<path class="st0" d="M431.7,324.2c-0.4,0.3-0.9,0.6-1.4,0.6c-0.6,0.1-1.1-0.3-1.4-0.8c-2.2-4.7-3.7-9.7-4.6-14.8
			c-0.1-0.2-0.2-0.4-0.3-0.4l-0.5,0.4c-1.6,2.9-3.5,5.6-5.7,8.1c-1.6,1.9-3.4,3.7-5.3,5.3l-2,1.6c-0.4,0.4-0.9,0.7-1.5,0.8
			c-0.6,0-1.2-0.3-1.4-0.9c-1.3-2.6-2.9-7.5-4.7-14.9l-0.8-3.8c-0.9-4.4-2.1-8.7-3.5-12.9c-1.2-3.2-2.1-5.1-2.7-5.7L395,286
			c-0.5-0.2-0.8-0.5-0.8-0.9c0-0.9,1.3-1.8,3.8-2.8c1.9-0.8,3.9-1.3,5.9-1.5c1.2-0.1,2.3,0.6,2.8,1.7c0.9,3.1,1.7,6.3,2.2,9.5
			c2.6,13.7,4.4,20.5,5.6,20.5c0.4,0,0.8-0.3,1.2-1l1.6-2.3c1-1.5,1.9-3.1,2.6-4.8c1-1.8,1.6-3.9,1.6-6c-0.2-1.1-0.4-2.2-0.6-3.4
			c-0.4-1.9-1.1-3.8-1.9-5.6c-0.8-1.8-1.5-2.8-2-3.1c-1.1-0.6-1.6-1.1-1.6-1.6c0-0.7,1.3-1.6,3.8-2.6c2.1-0.9,4.4-1.4,6.8-1.5
			c0.9,0,1.5,0.5,1.9,1.6c1.4,5.1,2.5,10.3,3.3,15.6c1.7,9.5,3.2,14.3,4.6,14.3c0.5,0,1.2-0.7,2.2-2.1c1.2-1.9,2.2-3.9,2.9-6
			c0.9-2.1,1.3-4.4,1.4-6.7c0-1.4,0-2.9-0.2-4.3c-0.3-1.3-0.8-2.5-1.6-3.5c-0.7-1.2-1.8-2-3.1-2.3c-1.2-0.2-1.7-0.6-1.7-1.1
			c0-0.9,1.3-2,3.8-3.3c2.4-1.3,5.1-2,7.8-2c2.6,0,3.9,2.6,3.9,7.7c0,6.4-1.9,13-5.7,19.8C442.1,314.7,437.4,320.1,431.7,324.2z"/>
		<path class="st0" d="M456,319.6l1-21.4c0-5.1-0.6-8.5-1.7-10.4c-0.3-0.6-0.7-1-1.3-1.4c-0.3-0.1-0.6-0.4-0.5-0.7
			c0-1.1,1.6-2.2,4.7-3.2c2.2-0.8,4.5-1.4,6.8-1.6c1.4,0,2.2,0.4,2.2,1.1c0,1.2-0.2,4.7-0.5,10.4c-0.3,5.7-0.5,11.7-0.5,18
			c0,6.3,0.4,10.2,1.1,11.7c0.2,0.3,0.3,0.6,0.3,0.9c0,0.8-1.2,1.2-3.5,1.2c-2.5,0-4.9-0.7-7.1-1.8C456.3,322.3,456,321.3,456,319.6
			z M463.4,273.4l-2.2-0.1c-1.7,0-2.7,0.4-3.2,1.2c-0.1,0.2-0.3,0.3-0.5,0.3c-0.8,0-1.2-1.4-1.2-4.1s0.4-4.4,1.2-5.2
			s2.3-1.1,4.3-1.1s3.4,0.4,4.2,1c0.8,1,1.2,2.3,1.1,3.5c0.1,1.2-0.2,2.4-0.8,3.4C465.5,273.1,464.4,273.5,463.4,273.4L463.4,273.4z
			"/>
		<path class="st0" d="M471.8,286.7l0.3-3.7c0.1-0.6,0.5-0.8,1.3-0.8h3.2l-0.4-7.3v-0.4c0-1.4,1.1-2.8,3.2-4
			c1.7-1.2,3.8-1.8,5.9-1.9c0.5,0,0.8,0.2,0.8,0.7v0.1c-0.2,1.6-0.5,5.9-0.7,12.7c1.7,0,3.4,0,5.1-0.2c0.7-0.1,1.1-0.2,1.2-0.2
			c0.4,0,0.6,0.4,0.6,1.1c-0.1,1-0.4,2-1,2.8c-0.7,1.1-1.4,1.7-2.2,1.8h-3.9c-0.1,2.1-0.1,5.6-0.1,10.5c0,4.9,0,9,0.1,12.1
			c0.1,3.2,0.2,5.6,0.3,7.2s0.3,2.9,0.4,3.9s0.3,1.7,0.4,2.1c0.1,0.3,0.1,0.5,0.1,0.8c0,0.6-0.4,0.9-1.2,1c-2.4,0-4.8-0.3-7.1-1
			c-2.4-0.7-3.5-1.8-3.5-3.5c1.3-11,2-22,1.9-33.1c-1.3,0-2.5,0-3.8,0.2h-0.1C472.2,287.7,471.9,287.3,471.8,286.7z"/>
		<path class="st0" d="M505.5,273.2l-0.1,8.9c0,0.4,0.1,0.5,0.4,0.5c0.3,0,0.5-0.1,0.7-0.3c1.5-1,3.9-1.5,7.2-1.5
			c5.6,0,9.4,1.9,11.5,5.7c0.9,1.7,1.3,3.6,1.2,5.6c0,2.3-0.1,5.5-0.4,9.6s-0.4,7-0.4,8.7c0,6,0.9,10,2.6,11.9
			c0.3,0.2,0.4,0.6,0.5,0.9c0,0.6-1.3,0.9-3.9,0.9c-7.1,0-10.6-3.3-10.6-9.9c0.2-3.7,0.8-7.3,1.8-10.8c1-3.3,1.6-6.8,1.9-10.3
			c0.1-1.8-0.4-3.6-1.6-5.1c-1.1-1.2-2.7-1.9-4.3-1.8c-1.5-0.1-3.1,0.3-4.3,1.2c-0.9,0.6-1.6,1.5-2,2.5l-0.3,1.2
			c-0.1,1.2-0.1,4.9-0.1,11.1c-0.1,4.1,0.1,8.1,0.5,12.1c0.3,1.9,0.5,2.9,0.5,3.2c0,1.8-1.2,3.4-3.6,4.7c-2.1,1.3-4.5,2-7,2.1
			c-0.9,0-1.3-0.5-1.3-1.5l0.2-1.7c1.4-11.1,2.1-22.2,2-33.4c0-4.7-0.2-9.4-0.5-14.1l-0.1-2c-0.1-1.5-0.4-3-1-4.4
			c-0.4-0.9-0.9-1.7-1.6-2.4l-0.8-0.5c-0.4-0.2-0.6-0.5-0.6-0.8c0-0.8,1.4-1.9,4.3-3.2c2.1-1,4.3-1.7,6.6-1.9c1.6,0,2.4,0.3,2.5,1
			C505.4,262.7,505.5,267.2,505.5,273.2z"/>
	</g>
	<g>
		<path class="st0" d="M652,318.6c0,7.8-1.5,14.6-4.5,20.4c-3,5.8-6.4,10-10.2,12.8c-4.2,2.9-8.7,5.1-13.6,6.5
			c-6,2-12.4,3.1-18.7,3.3c-11.8,0-21.5-2.3-29.3-6.9c-7.8-4.6-11.7-12-11.7-22.1c0-6,1.6-10.9,4.9-14.6c5.1-5.6,11.1-8.4,18.2-8.4
			c2.2,0,3.3,1,3.3,3c0,0.2-0.4,1.6-1.2,4.2c-0.9,3.2-1.3,6.6-1.2,9.9c0,4.1,1.7,7.9,4.8,10.6c3.1,3,7.2,4.7,11.5,4.6
			c4.5,0,8.1-0.8,10.8-2.3c2.5-1.3,4.5-3.3,5.7-5.8c1.5-2.8,2.4-6,2.5-9.2c0-5.2-2.6-9.8-7.9-13.6c-5.3-3.8-11.2-6.8-17.4-9
			c-6.5-2.3-12.5-6-17.4-10.9c-5.2-4.9-8.1-11.8-7.9-19c0-13,4.1-22.8,12.3-29.3c8.2-6.5,19.4-9.8,33.5-9.8
			c6.6,0.1,13.1,0.9,19.4,2.6c6.8,1.7,10.2,4.6,10.2,8.7c0,3.8-0.6,7.7-2,11.3c-1.3,3.4-3,5.2-5,5.2c-0.9,0.1-1.8-0.4-2.2-1.2
			c-0.5-1-1.1-2-1.9-2.9c-0.9-1.1-3.1-2.5-6.5-4.2c-2.7-1.5-5.7-2.4-8.8-2.6c-2.4,0-4.1,0-4.9,0.1s-2.2,0.4-4.2,0.8
			c-1.9,0.4-3.7,1.1-5.4,2c-4.2,2.4-6.3,5.8-6.2,10.3c0,2.9,0.6,5,1.9,6.4s2.3,2.4,3,3.1c1.2,1,2.4,1.9,3.8,2.6c1.8,1,3.1,1.7,3.8,2
			s2.3,1.1,4.9,2.3s4.2,1.9,4.9,2.3C642.5,290.7,652,303,652,318.6z"/>
		<path class="st0" d="M753.5,274.3l-0.5,34.7c0,24.1,2.6,38.5,7.9,43.4c0.7,0.6,1.1,1.5,1.1,2.5c0,2.7-5.8,4.1-17.5,4.1
			c-11.7,0-17.9-3.4-18.6-10.3c-0.2-1.6-0.3-5-0.3-10l1.1-43.4c0-1.3-0.7-1.9-2.2-1.9c-8.7,0-17.2,2.6-24.4,7.3
			c-7.6,4.9-11.4,11.1-11.4,18.7c-0.1,3.6,1,7.1,3.2,10c1.9,2.6,4.8,4.1,8,4.1c2.7,0.1,5.5-0.6,7.9-1.9c2.1-1.3,3.3-2,3.7-2.2
			c3.1,0.4,4.6,3.6,4.6,9.6s-2.8,10.9-8.4,14.6c-5.2,3.6-11.3,5.5-17.6,5.6c-5.4,0.2-10.9-0.9-15.8-3.2c-4.4-2.2-7.7-4.6-9.6-7.3
			c-2.1-2.8-3.7-5.9-4.9-9.2c-1.2-3.5-1.8-7.2-1.9-10.9c0-12.7,4-22.8,11.9-30.4c8-7.6,18.2-13,30.7-16.3c16.5-3.3,25.1-6.3,25.8-9
			c0.7-3.3,0.9-6.6,0.8-10c0-9.6-4.9-14.4-14.7-14.4c-4.1,0-8,1.4-11.1,3.9c-3.1,2.3-4.9,6-4.9,9.9l1.6,6.5
			c-0.4,3.1-3.6,4.9-9.8,5.4l-3,0.3c-5.4,0-9.7-1.4-12.9-4.1c-3.2-2.7-4.9-6.7-4.8-10.9c0.1-3.4,1.1-6.7,2.8-9.6
			c1.7-3.3,4.2-6.3,7.2-8.5c2.9-2.2,7.4-4.1,13.4-5.8c5.7-1.7,11.6-2.6,17.5-2.7c4.3-0.1,8.7,0.1,13,0.5c4.3,0.6,8.5,1.5,12.6,2.6
			c5.1,1.2,9.7,3.9,13.3,7.7c3.5,3.8,5.4,7.8,5.7,12.1C753.4,260.2,753.5,266.4,753.5,274.3z"/>
		<path class="st0" d="M852.9,283.1l1.1,9.5c0,3.4-3.3,5.2-9.8,5.2c-13.2,0-19.8-5-19.8-14.9c0.2-3.3,0.8-6.6,1.9-9.8
			c1.2-3.5,1.8-7.2,1.9-10.9c0.1-2.9-0.9-5.7-2.7-8c-1.8-2.3-4.4-3.4-7.9-3.4c-3.3-0.1-6.5,1.3-8.8,3.7c-2.2,2-3.7,4.6-4.5,7.5
			l-1.1,3.8c-1.1,5.6-1.6,15-1.6,28.1s0.2,23.4,0.5,30.9c0.4,7.5,0.7,12.7,1.1,15.5c0.4,2.8,0.5,4.5,0.5,5c0,4.5-2.8,8.2-8.4,11
			c-5.2,2.7-11,4.1-16.8,4.2c-5.6,0-8.4-1.2-8.4-3.5l1.3-8.4c2.5-15.7,3.8-36.3,3.8-61.6c0-25.3-0.9-42.5-2.7-51.6
			c0-2.2,1.9-3.3,5.7-3.3c9.8,0,16.3,3.3,19.5,10c0.2,0.7,0.5,1.1,1,1.1s1.7-0.8,3.7-2.4c6-4.9,13.5-7.5,21.2-7.3
			c5.2,0,10.4,1.1,15.2,3c10.3,4.2,15.5,12.9,15.5,26.1L852.9,283.1z"/>
		<path class="st0" d="M950.8,274.3l-0.5,34.7c0,24.1,2.6,38.5,7.9,43.4c0.7,0.6,1.1,1.5,1.1,2.5c0,2.7-5.8,4.1-17.5,4.1
			s-17.9-3.4-18.6-10.3c-0.2-1.6-0.3-5-0.3-10l1.1-43.4c0-1.3-0.7-1.9-2.2-1.9c-8.7,0-17.2,2.6-24.4,7.3
			c-7.6,4.9-11.4,11.1-11.4,18.7c-0.1,3.6,1,7.1,3.2,10c1.9,2.6,4.8,4.1,8,4.1c2.7,0.1,5.5-0.6,7.9-1.9c2.1-1.3,3.3-2,3.7-2.2
			c3.1,0.4,4.6,3.6,4.6,9.6c0,6.1-2.8,10.9-8.4,14.6c-5.2,3.6-11.3,5.5-17.6,5.6c-5.5,0.2-10.9-0.9-15.9-3.2
			c-4.4-2.2-7.7-4.6-9.6-7.3c-2.1-2.8-3.7-5.9-4.9-9.2c-1.2-3.5-1.8-7.2-1.9-10.9c0-12.7,4-22.8,11.9-30.4c8-7.6,18.2-13,30.7-16.3
			c16.5-3.3,25.1-6.3,25.8-9c0.7-3.3,0.9-6.6,0.8-10c0-9.6-4.9-14.4-14.7-14.4c-4.1,0-8,1.4-11.1,3.9c-3.1,2.3-4.9,6-4.9,9.9
			l1.6,6.5c-0.4,3.1-3.6,4.9-9.8,5.4l-3,0.3c-5.4,0-9.7-1.4-12.9-4.1c-3.2-2.7-4.9-6.7-4.7-10.9c0.1-3.4,1.1-6.7,2.8-9.6
			c1.7-3.3,4.2-6.3,7.2-8.5c2.9-2.2,7.4-4.1,13.4-5.8c5.7-1.7,11.6-2.5,17.5-2.6c4.3-0.1,8.7,0.1,13,0.5c4.3,0.6,8.5,1.5,12.6,2.6
			c5.1,1.2,9.7,3.9,13.3,7.7c3.5,3.8,5.4,7.8,5.7,12.1C950.7,260.2,950.8,266.4,950.8,274.3z"/>
	</g>
</g>
</svg>
